<?xml version="1.0" encoding="iso-8859-1"?>
<!-- Generator: Adobe Illustrator 16.0.0, SVG Export Plug-In . SVG Version: 6.00 Build 0)  -->
<!DOCTYPE svg PUBLIC "-//W3C//DTD SVG 1.1//EN" "http://www.w3.org/Graphics/SVG/1.1/DTD/svg11.dtd">
<svg version="1.1" id="Capa_1" xmlns="http://www.w3.org/2000/svg" xmlns:xlink="http://www.w3.org/1999/xlink" x="0px" y="0px"
	 width="611.998px" height="611.998px" viewBox="0 0 611.998 611.998" style="enable-background:new 0 0 611.998 611.998;"
	 xml:space="preserve">
<g>
	<g id="Shape_8_1_">
		<g>
			<path d="M407.789,290.37l-0.25-3.876l-62.576-62.171L0,567.009l21.022,2.629c0.467,0.062,11.69,1.435,30.956,1.435
				c62.348,0,222.646-14.984,364.301-153.679l4.219-4.271l-1.485-5.736C418.814,406.598,413.972,387.093,407.789,290.37z
				 M344.952,253.46l42.387,42.106c1.621,24.991,3.158,44.704,4.541,60.354c-26.581,19.213-164.828,115.614-282.303,131.357
				L344.952,253.46z M51.978,550.466c-2.088,0-4.063-0.021-5.944-0.052l40.817-40.547c118.514-4.261,261.364-97.835,307.346-130.184
				c1.475,13.675,2.69,21.988,3.532,26.893C262.538,536.334,111.177,550.466,51.978,550.466z M597.358,81.711l-26.415-26.238
				c-9.436-9.383-21.988-14.548-35.33-14.548c-13.343,0-25.896,5.165-35.342,14.538L352.288,202.47l70.683,70.214l167.478-115.043
				c12.23-8.396,20.004-21.655,21.344-36.359C613.133,106.578,607.875,92.155,597.358,81.711z M578.654,140.703L425.402,245.968
				l-43.789-43.498L514.935,70.032c11.046-10.974,30.29-10.974,41.347,0l26.415,26.238c6.142,6.11,9.228,14.548,8.438,23.152
				C590.354,128.036,585.804,135.788,578.654,140.703z"/>
		</g>
	</g>
</g>
<g>
</g>
<g>
</g>
<g>
</g>
<g>
</g>
<g>
</g>
<g>
</g>
<g>
</g>
<g>
</g>
<g>
</g>
<g>
</g>
<g>
</g>
<g>
</g>
<g>
</g>
<g>
</g>
<g>
</g>
</svg>
